<!-- Selected Lucide 1.47.0 icons; license in docs/THIRD_PARTY_NOTICES.md. -->
<svg xmlns="http://www.w3.org/2000/svg"><symbol id="baby" viewBox="0 0 24 24" fill="none" stroke="currentColor" stroke-width="1.7" stroke-linecap="round" stroke-linejoin="round"><path d="M10 16c.5.3 1.2.5 2 .5s1.5-.2 2-.5" />
  <path d="M15 12h.01" />
  <path d="M19.38 6.813A9 9 0 0 1 20.8 10.2a2 2 0 0 1 0 3.6 9 9 0 0 1-17.6 0 2 2 0 0 1 0-3.6A9 9 0 0 1 12 3c2 0 3.5 1.1 3.5 2.5s-.9 2.5-2 2.5c-.8 0-1.5-.4-1.5-1" />
  <path d="M9 12h.01" />
</symbol><symbol id="flower-2" viewBox="0 0 24 24" fill="none" stroke="currentColor" stroke-width="1.7" stroke-linecap="round" stroke-linejoin="round"><path d="M12 5a3 3 0 1 1 3 3m-3-3a3 3 0 1 0-3 3m3-3v1M9 8a3 3 0 1 0 3 3M9 8h1m5 0a3 3 0 1 1-3 3m3-3h-1m-2 3v-1" />
  <circle cx="12" cy="8" r="2" />
  <path d="M12 10v12" />
  <path d="M12 22c4.2 0 7-1.667 7-5-4.2 0-7 1.667-7 5Z" />
  <path d="M12 22c-4.2 0-7-1.667-7-5 4.2 0 7 1.667 7 5Z" />
</symbol><symbol id="briefcase-business" viewBox="0 0 24 24" fill="none" stroke="currentColor" stroke-width="1.7" stroke-linecap="round" stroke-linejoin="round"><path d="M12 12h.01" />
  <path d="M16 6V4a2 2 0 0 0-2-2h-4a2 2 0 0 0-2 2v2" />
  <path d="M22 13a18.15 18.15 0 0 1-20 0" />
  <rect width="20" height="14" x="2" y="6" rx="2" />
</symbol><symbol id="book-open" viewBox="0 0 24 24" fill="none" stroke="currentColor" stroke-width="1.7" stroke-linecap="round" stroke-linejoin="round"><path d="M12 5v16" />
  <path d="M20.001 19A2 2 0 0022 17V5a2 2 0 00-1.999-2L16 3.002A5 5 0 0012 5a5 5 0 00-4-2H4a2 2 0 00-2 2v12a2 2 0 001.999 2H8a5 5 0 014 2 5 5 0 014-2z" />
</symbol><symbol id="notebook-pen" viewBox="0 0 24 24" fill="none" stroke="currentColor" stroke-width="1.7" stroke-linecap="round" stroke-linejoin="round"><path d="M13.4 2H6a2 2 0 0 0-2 2v16a2 2 0 0 0 2 2h12a2 2 0 0 0 2-2v-7.4" />
  <path d="M2 6h4" />
  <path d="M2 10h4" />
  <path d="M2 14h4" />
  <path d="M2 18h4" />
  <path d="M21.378 5.626a1 1 0 1 0-3.004-3.004l-5.01 5.012a2 2 0 0 0-.506.854l-.837 2.87a.5.5 0 0 0 .62.62l2.87-.837a2 2 0 0 0 .854-.506z" />
</symbol><symbol id="venus" viewBox="0 0 24 24" fill="none" stroke="currentColor" stroke-width="1.7" stroke-linecap="round" stroke-linejoin="round"><path d="M12 15v7" />
  <path d="M9 19h6" />
  <circle cx="12" cy="9" r="6" />
</symbol><symbol id="mars" viewBox="0 0 24 24" fill="none" stroke="currentColor" stroke-width="1.7" stroke-linecap="round" stroke-linejoin="round"><path d="M16 3h5v5" />
  <path d="m21 3-6.75 6.75" />
  <circle cx="10" cy="14" r="6" />
</symbol><symbol id="users-round" viewBox="0 0 24 24" fill="none" stroke="currentColor" stroke-width="1.7" stroke-linecap="round" stroke-linejoin="round"><path d="M18 21a8 8 0 0 0-16 0" />
  <circle cx="10" cy="8" r="5" />
  <path d="M22 20c0-3.37-2-6.5-4-8a5 5 0 0 0-.45-8.3" />
</symbol><symbol id="plus" viewBox="0 0 24 24" fill="none" stroke="currentColor" stroke-width="1.7" stroke-linecap="round" stroke-linejoin="round"><path d="M5 12h14" />
  <path d="M12 5v14" />
</symbol><symbol id="minus" viewBox="0 0 24 24" fill="none" stroke="currentColor" stroke-width="1.7" stroke-linecap="round" stroke-linejoin="round"><path d="M5 12h14" />
</symbol><symbol id="scan" viewBox="0 0 24 24" fill="none" stroke="currentColor" stroke-width="1.7" stroke-linecap="round" stroke-linejoin="round"><path d="M3 7V5a2 2 0 0 1 2-2h2" />
  <path d="M17 3h2a2 2 0 0 1 2 2v2" />
  <path d="M21 17v2a2 2 0 0 1-2 2h-2" />
  <path d="M7 21H5a2 2 0 0 1-2-2v-2" />
</symbol><symbol id="search" viewBox="0 0 24 24" fill="none" stroke="currentColor" stroke-width="1.7" stroke-linecap="round" stroke-linejoin="round"><path d="m21 21-4.34-4.34" />
  <circle cx="11" cy="11" r="8" />
</symbol><symbol id="external-link" viewBox="0 0 24 24" fill="none" stroke="currentColor" stroke-width="1.7" stroke-linecap="round" stroke-linejoin="round"><path d="M15 3h6v6" />
  <path d="M10 14 21 3" />
  <path d="M18 13v6a2 2 0 0 1-2 2H5a2 2 0 0 1-2-2V8a2 2 0 0 1 2-2h6" />
</symbol></svg>
